<?xml version="1.0" encoding="utf-8"?>
<!-- Generator: Adobe Illustrator 25.0.0, SVG Export Plug-In . SVG Version: 6.00 Build 0)  -->
<svg version="1.1" id="Layer_1" xmlns="http://www.w3.org/2000/svg" xmlns:xlink="http://www.w3.org/1999/xlink" x="0px" y="0px"
	 viewBox="0 0 128 128" style="enable-background:new 0 0 128 128;" xml:space="preserve">
<style type="text/css">
	.st0{fill:#FFFFFF;}
</style>
<g>
	<g>
		<path class="st0" d="M64,13.9c-27.6,0-50.1,22.5-50.1,50.1c0,27.6,22.5,50.1,50.1,50.1c27.6,0,50.1-22.5,50.1-50.1
			C114.2,36.4,91.7,13.9,64,13.9z M64,110.1c-25.4,0-46.1-20.7-46.1-46.1c0-25.4,20.7-46.1,46.1-46.1c25.4,0,46.1,20.7,46.1,46.1
			C110.2,89.4,89.5,110.1,64,110.1z M78.5,68.9L66,79.7V43.9c0-1.1-0.9-2-2-2s-2,0.9-2,2v35.8L49.5,68.9c-0.8-0.7-2.1-0.6-2.8,0.2
			s-0.6,2.1,0.2,2.8L64,86.7l17.1-14.7c0.8-0.7,0.9-2,0.2-2.8C80.6,68.3,79.4,68.2,78.5,68.9z"/>
	</g>
</g>
</svg>
